<?xml version="1.0" encoding="utf-8"?>
<!-- Generator: Adobe Illustrator 24.0.1, SVG Export Plug-In . SVG Version: 6.00 Build 0)  -->
<svg version="1.1" id="Layer_1" xmlns="http://www.w3.org/2000/svg" xmlns:xlink="http://www.w3.org/1999/xlink" x="0px" y="0px"
	 viewBox="0 0 595.6 37.4" style="enable-background:new 0 0 595.6 37.4;" xml:space="preserve">
<style type="text/css">
	.st0{fill:#C63B41;}
	.st1{fill:#1A497C;}
	.st2{fill:#929292;}
</style>
<g>
	<path class="st0" d="M26,11.2c-0.6-4.6-4.9-5-8.8-5c-3.9,0-6.5,1.8-6.5,4.1c0,1.9,1.5,2.9,4,3.3l11.9,1.9c6.4,1,11.2,3.4,11.2,9.8
		c0,6.5-4.4,11.8-18.2,11.8C11.2,37.1,0,36,0,25h10.7c0.1,4.9,4.9,5.6,9,5.6c4.5,0,7.5-1.3,7.5-4.4c0-2.7-2.2-3.4-5.9-4L12.6,21
		c-6.1-0.9-12-2.7-12-9.9c0-7.8,6.4-11,17.3-11c7.2,0,17.9,1.2,18.5,11.1H26z"/>
	<path class="st0" d="M42.2,1.1h25.4C77.3,1.1,79,7,79,10.6c0,4.3-1.7,7-5.7,8.4v0.1c4.1,0.6,4.8,5.9,4.8,9.4c0,1.7,0.1,5.9,1.8,7.6
		H69.5c-0.9-1.5-0.9-3.1-0.9-6.7c0-4.9-2.1-6.1-5-6.1H51.7v12.8h-9.5V1.1z M51.7,16.6h12.6c2.1,0,4.6-1.2,4.6-4.5
		c0-3.5-2.7-4.4-5-4.4H51.7V16.6z"/>
	<path class="st0" d="M84,1.1h23.5c9.9,0,12.3,5.9,12.3,10.6c0,7.5-3.9,11.9-11.6,11.9H93.5v12.5H84V1.1z M93.5,17.2h10.2
		c2.9,0,6.4-0.1,6.4-4.8c0-4.6-2.8-4.9-5.5-4.9H93.5V17.2z"/>
	<path class="st0" d="M148.5,11.2c-0.6-4.6-4.9-5-8.8-5c-3.9,0-6.5,1.8-6.5,4.1c0,1.9,1.5,2.9,4,3.3l11.9,1.9
		c6.4,1,11.2,3.4,11.2,9.8c0,6.5-4.4,11.8-18.2,11.8c-8.5,0-19.7-1.1-19.7-12h10.7c0.1,4.9,4.9,5.6,9,5.6c4.5,0,7.5-1.3,7.5-4.4
		c0-2.7-2.2-3.4-5.9-4l-8.7-1.3c-6.1-0.9-12-2.7-12-9.9c0-7.8,6.4-11,17.3-11c7.2,0,17.9,1.2,18.5,11.1H148.5z"/>
	<path class="st0" d="M190.5,1.1h12.8l-16.1,14.1l17.3,20.9h-12.8l-11.9-15.1l-5.5,4.8v10.4h-9.5v-35h9.5v15L190.5,1.1z"/>
	<path class="st0" d="M232.5,28.9h-16.1l-2.8,7.2h-10.2l15.4-35h11.5l15.4,35h-10.2L232.5,28.9z M224.5,8.6L219,22.5h11L224.5,8.6z"
		/>
	<path class="st1" d="M276,7.8h-13V1.1h35.5v6.7h-13v28.3H276V7.8z"/>
	<path class="st1" d="M301.7,1.1h32.7v6.7h-23.2V15h22v6.4h-22v8h23.4v6.7h-32.9V1.1z"/>
	<path class="st1" d="M369.4,1.1h9.2v35h-10.3l-19.1-24.4h-0.1v24.4h-9.2v-35h11l18.4,24.4h0.1V1.1z"/>
	<path class="st1" d="M385.2,1.1h9.5v35h-9.5V1.1z"/>
	<path class="st1" d="M425.1,11.2c-0.6-4.6-4.9-5-8.8-5c-3.9,0-6.5,1.8-6.5,4.1c0,1.9,1.5,2.9,4,3.3l11.9,1.9
		c6.4,1,11.2,3.4,11.2,9.8c0,6.5-4.4,11.8-18.2,11.8c-8.5,0-19.7-1.1-19.7-12h10.7c0.1,4.9,4.9,5.6,9,5.6c4.5,0,7.5-1.3,7.5-4.4
		c0-2.7-2.2-3.4-5.9-4l-8.7-1.3c-6.1-0.9-12-2.7-12-9.9c0-7.8,6.4-11,17.3-11c7.2,0,17.9,1.2,18.5,11.1H425.1z"/>
	<path class="st2" d="M459.5,1.1h9.5v28h21.3v7h-30.8V1.1z"/>
	<path class="st2" d="M494.8,1.1h9.5v35h-9.5V1.1z"/>
	<path class="st2" d="M533.2,16.6H551v19.5h-4.8l-1.3-4.1c-3.3,3.6-8.6,5-14.7,5c-12.7,0-20.7-5.5-20.7-18.5
		c0-10.8,7.5-18.5,20.7-18.5c9.7,0,18.9,2.8,20.6,12.4h-10.6c-1.5-4.5-5.4-5.8-8.9-5.8c-8.6,0-11.7,6.4-11.7,11.8s3,11.8,11.7,11.8
		c5.2,0,9.2-2,10.3-7.7h-8.5V16.6z"/>
	<path class="st2" d="M582.4,28.9h-16.1l-2.8,7.2h-10.2l15.4-35h11.5l15.4,35h-10.2L582.4,28.9z M574.4,8.6l-5.5,13.9h11L574.4,8.6z
		"/>
</g>
</svg>
