<svg id="Layer_1" data-name="Layer 1" xmlns="http://www.w3.org/2000/svg" viewBox="0 0 538.81 56.97"><defs><style>.cls-1{fill:#fff;}</style></defs><path class="cls-1" d="M609.4,619.9l-1.89-5.3H595.39l-1.88,5.3h-11v-.67l16.38-42.58h5.24l16.2,42.58v.67ZM604.53,606a71.93,71.93,0,0,1-3.11-12.12,107.43,107.43,0,0,1-3,12.12Z" transform="translate(-582.48 -576.65)"/><path class="cls-1" d="M648.19,597.55a11.82,11.82,0,0,1,5.3,9.86c0,7.62-5,12.49-12.72,12.49H623.83V577.27h15.59c7.62,0,12.67,4.75,12.67,12.18,0,2.61-1,6.21-3.9,8.1M638.51,594c1.83,0,3.11-1.4,3.17-3.47.06-2.31-1.22-3.83-3.17-3.83h-4.32V594Zm1.4,16.32c1.77,0,3.17-1.46,3.17-3.65s-1.4-3.9-3.17-3.9h-5.72v7.55Z" transform="translate(-582.48 -576.65)"/><path class="cls-1" d="M679.19,619.84l-5.48-13.34h-4v13.34H659.15V577.27h15c8.65,0,14.38,6,14.38,15-.06,4.87-1.34,8.71-5.12,11.51l7.25,15.47v.55Zm-5.06-22.42c2.56,0,4.27-2.13,4.27-5.36s-1.71-5.17-4.27-5.17H669.5v10.53Z" transform="translate(-582.48 -576.65)"/><path class="cls-1" d="M718.4,619.9l-1.88-5.3H704.4l-1.89,5.3h-11v-.67l16.38-42.58h5.23l16.21,42.58v.67ZM713.53,606a71.7,71.7,0,0,1-3.1-12.12,110,110,0,0,1-3,12.12Z" transform="translate(-582.48 -576.65)"/><polygon class="cls-1" points="186.28 43.24 175.75 43.24 175.75 23.94 168.86 33.07 167.71 33.07 160.89 23.94 160.89 43.24 150.35 43.24 150.35 0.37 154.07 0.37 168.32 18.82 182.57 0.37 186.28 0.37 186.28 43.24"/><path class="cls-1" d="M793.06,620.51c-11.2,0-18.69-8.77-18.69-21.93s7.49-21.93,18.69-21.93,18.57,8.77,18.57,21.93-7.42,21.93-18.57,21.93m0-10.42c4.81,0,8-4.68,8-11.51s-3.17-11.45-8-11.45-8.22,4.63-8.22,11.45S788.13,610.09,793.06,610.09Z" transform="translate(-582.48 -576.65)"/><path class="cls-1" d="M1022.3,596.27a6,6,0,0,1,1.21.13,3.13,3.13,0,0,1,1,.45l.56.3a3.19,3.19,0,0,1,.42.3,3.56,3.56,0,0,1,.48.44l.42.37a82,82,0,0,1-6.1,10.26,64.48,64.48,0,0,1-7,8.39l-.16,0,.37-2.15q.21-1.4.63-3.24c.27-1.21.6-2.5,1-3.87s.78-2.72,1.22-4.07a27.35,27.35,0,0,1,1.19-2.83,15.13,15.13,0,0,1,1.44-2.3,6.51,6.51,0,0,1,1.6-1.56,3.18,3.18,0,0,1,1.72-.57m5.91-1.72c-.21.44-.41.87-.59,1.28s-.38.78-.56,1.12a10.34,10.34,0,0,0-2.87-2.42,6.4,6.4,0,0,0-3.14-.82,5.38,5.38,0,0,0-2.81.8,9,9,0,0,0-2.62,2.39,22.52,22.52,0,0,0-2.19,3.45,26.25,26.25,0,0,0-1.68,4.07c-.47,1.44-.89,2.85-1.25,4.23s-.68,2.72-.94,4-.42,2.47-.54,3.49a21.5,21.5,0,0,0-.19,2.67,2.75,2.75,0,0,0,.52,1.52,1.77,1.77,0,0,0,1.12.63,8,8,0,0,0,1.7.1q1.37-1.38,2.87-3.18c1-1.2,2.07-2.54,3.19-4s2.06-2.77,2.83-3.84,1.35-1.93,1.77-2.59.79-1.25,1.13-1.79.62-1,.85-1.39l.16.05c-.45,1.25-.85,2.52-1.21,3.8s-.67,2.6-.93,3.93-.46,2.5-.59,3.49a20.25,20.25,0,0,0-.2,2.52,3.94,3.94,0,0,0,.56,2.3,1.93,1.93,0,0,0,1.69.78,2.93,2.93,0,0,0,1.55-.52,7.54,7.54,0,0,0,1.5-1.31,11.38,11.38,0,0,0,1.23-1.67,16.06,16.06,0,0,0,.83-1.42c.27-.5.53-1,.79-1.61.34-.76.6-1.36.79-1.8s.31-.8.4-1,.16-.47.22-.65l-.52-.26a53,53,0,0,1-2.56,4.68,14,14,0,0,1-2.25,2.89,41.13,41.13,0,0,1,1.46-7.93q1.44-5.85,4.34-15.52a3.72,3.72,0,0,0-2.66-1.26,1.27,1.27,0,0,0-.72.2A1.48,1.48,0,0,0,1028.21,594.55Zm-20.11-3c0-.49-.32-.88-.94-1.14a8.65,8.65,0,0,0-2.83-.48,9.14,9.14,0,0,1-.4,1.88c-.26,1-.67,2.28-1.22,3.92h-2.66c-.31,0-.57,0-.78,0l0,.1a.82.82,0,0,0-.17.43,4.73,4.73,0,0,0,0,.67,1.38,1.38,0,0,0,.46,1.13,2.06,2.06,0,0,0,1.36.39h.64a2.67,2.67,0,0,0,.51,0q-2.38,8.07-3.57,12.86a34,34,0,0,0-1.18,6.31,4,4,0,0,0,.77,2.66,2.91,2.91,0,0,0,2.31.9,2.94,2.94,0,0,0,1.46-.48,7.4,7.4,0,0,0,1.45-1.22,11.58,11.58,0,0,0,1.22-1.59,14.7,14.7,0,0,0,.83-1.35c.27-.46.53-1,.79-1.53s.61-1.27.8-1.7l.42-1c.09-.24.18-.43.24-.58l-.52-.26-.79,1.36c-.26.47-.56,1-.9,1.5s-.71,1.08-1.13,1.69a11.18,11.18,0,0,1-2.2,2.5,1,1,0,0,1-.3-.42,1.52,1.52,0,0,1-.11-.62,23.61,23.61,0,0,1,.82-4.86c.55-2.26,1.33-5.14,2.36-8.62.52-1.75.94-3.14,1.25-4.18s.5-1.7.58-2c1.07-.19,2-.33,2.88-.44s1.59-.19,2.19-.24l.1-1.1a.87.87,0,0,0-.22-.64,1,1,0,0,0-.67-.2c-.44,0-1,0-1.57.07l-2.08.2.66-2.66A8.64,8.64,0,0,0,1008.1,591.57Zm-10.66-5.85a2,2,0,0,0-1-1.81,6.39,6.39,0,0,0-3.1-.59,21.12,21.12,0,0,1-.42,2.7c-.24,1.09-.57,2.37-1,3.83q-4,13.75-6,21.2a64.23,64.23,0,0,0-2,8.63,1.56,1.56,0,0,0,.5,1.28,2.2,2.2,0,0,0,1.48.44,5.85,5.85,0,0,0,1.54-.2,5.77,5.77,0,0,0,1.39-.58,23,23,0,0,1,.51-4.15c.35-1.73.87-3.82,1.58-6.25L996,592c.47-1.62.83-2.95,1.06-4A11.44,11.44,0,0,0,997.44,585.72Zm-28.68,7.47a8,8,0,0,0-3.5.7,14,14,0,0,0-3.44,2.17,21.43,21.43,0,0,0-3.11,3.31,25.68,25.68,0,0,0-2.51,4.1,21.93,21.93,0,0,0-1.65,4.5,17.38,17.38,0,0,0-.52,4.6,12.15,12.15,0,0,0,.75,4.46,6.66,6.66,0,0,0,2.14,3,5.68,5.68,0,0,0,3.43,1.08,7.6,7.6,0,0,0,3-.67,11.41,11.41,0,0,0,3-2,16.73,16.73,0,0,0,2.75-3.09,23.12,23.12,0,0,0,2.16-3.91,22,22,0,0,0,1.88-8.88c0-.46,0-.88,0-1.24a7.45,7.45,0,0,0-.12-1.07,10.81,10.81,0,0,0-.27-1.14,2.73,2.73,0,0,0-1-1.5,2.84,2.84,0,0,0-1.75-.53,7.6,7.6,0,0,0-1.42.12,4.38,4.38,0,0,0-1.14.4l.26.73a10.36,10.36,0,0,1,.38,1.37c.12.56.24,1.21.32,1.91a18,18,0,0,1-.21,5.65,24.84,24.84,0,0,1-1,3.61,27.45,27.45,0,0,1-1.46,3.33,17.16,17.16,0,0,1-1.73,2.68,9,9,0,0,1-1.8,1.71,3,3,0,0,1-1.65.58q-2.19,0-2.19-4.85a25.09,25.09,0,0,1,.35-4.12,27.37,27.37,0,0,1,1.11-4.24,21.39,21.39,0,0,1,4.28-7.32,10.43,10.43,0,0,1,2.85-2.28,6.69,6.69,0,0,1,3-.75l.21-1.35a.93.93,0,0,0-.35-.78A1.87,1.87,0,0,0,968.76,593.19Zm-18.34,3.92a3.64,3.64,0,0,1,.52,0,2.74,2.74,0,0,1,.32.07c-.13.71-.27,1.61-.43,2.7s-.3,2.4-.46,3.89l.68.31a28.17,28.17,0,0,1,1.13-2.68c.47-1,1-2,1.64-3.22s1.18-2.17,1.68-3,.91-1.45,1.25-1.92a3.22,3.22,0,0,0-.63-.51,5.1,5.1,0,0,0-.87-.45,2.85,2.85,0,0,0-.91-.19,1.85,1.85,0,0,0-1.45.75,6.53,6.53,0,0,0-1.11,2.28h-.47a2.06,2.06,0,0,0-.47-1.3,1.44,1.44,0,0,0-1.09-.32,7.33,7.33,0,0,0-3.07.7,13.1,13.1,0,0,0-3.15,2.12,9.82,9.82,0,0,0-2.35,2.92,7.16,7.16,0,0,0-.78,3.24,5.47,5.47,0,0,0,.52,2.21,12.49,12.49,0,0,0,1.3,2.24,19.91,19.91,0,0,0,1.68,2c.58.62,1.14,1.27,1.67,2a12.68,12.68,0,0,1,1.3,2,4.06,4.06,0,0,1-.08,4.15,4.56,4.56,0,0,1-1.57,1.55,4.21,4.21,0,0,1-2.11.58,4.7,4.7,0,0,1-3.89-2,5.46,5.46,0,0,1-.91-2.18,2.72,2.72,0,0,0-1.37.37,2.57,2.57,0,0,0-.94.94,2.55,2.55,0,0,0,.4,3.12,4.83,4.83,0,0,0,2.07,1.14,11.25,11.25,0,0,0,3.13.39,11.8,11.8,0,0,0,3.94-.63,9.19,9.19,0,0,0,3.16-1.88,9,9,0,0,0,2.07-2.82,7.93,7.93,0,0,0,.7-3.29,5.25,5.25,0,0,0-.58-2.23,11.16,11.16,0,0,0-1.47-2.23,16.22,16.22,0,0,0-1.87-1.92,22.65,22.65,0,0,1-1.87-1.8,12.2,12.2,0,0,1-1.46-1.86,3.41,3.41,0,0,1-.59-1.66,2.6,2.6,0,0,1,.54-1.6,3.89,3.89,0,0,1,1.61-1.12,11.86,11.86,0,0,1,2.26-.71A12.63,12.63,0,0,1,950.42,597.11Zm-16.4,0a3.64,3.64,0,0,1,.52,0,2.74,2.74,0,0,1,.32.07c-.13.71-.27,1.61-.43,2.7s-.3,2.4-.46,3.89l.68.31a28.17,28.17,0,0,1,1.13-2.68c.46-1,1-2,1.64-3.22s1.18-2.17,1.68-3,.9-1.45,1.24-1.92a2.86,2.86,0,0,0-.62-.51,5.1,5.1,0,0,0-.87-.45,2.91,2.91,0,0,0-.91-.19,1.84,1.84,0,0,0-1.45.75,6.36,6.36,0,0,0-1.11,2.28h-.47a2.12,2.12,0,0,0-.47-1.3,1.45,1.45,0,0,0-1.1-.32,7.32,7.32,0,0,0-3.06.7,12.91,12.91,0,0,0-3.15,2.12,9.66,9.66,0,0,0-2.35,2.92,7,7,0,0,0-.79,3.24,5.66,5.66,0,0,0,.53,2.21,11.92,11.92,0,0,0,1.3,2.24,21.24,21.24,0,0,0,1.67,2,24.29,24.29,0,0,1,1.67,2,12.11,12.11,0,0,1,1.31,2,4.09,4.09,0,0,1-.09,4.15,4.54,4.54,0,0,1-1.56,1.55,4.21,4.21,0,0,1-2.11.58,4.7,4.7,0,0,1-3.89-2,5.62,5.62,0,0,1-.92-2.18,2.71,2.71,0,0,0-1.36.37,2.57,2.57,0,0,0-.54,4.06,4.77,4.77,0,0,0,2.07,1.14,11.22,11.22,0,0,0,3.12.39,11.82,11.82,0,0,0,3.95-.63,9.28,9.28,0,0,0,3.16-1.88,9.15,9.15,0,0,0,2.07-2.82,7.93,7.93,0,0,0,.7-3.29,5.12,5.12,0,0,0-.59-2.23A11.1,11.1,0,0,0,933,608a16.22,16.22,0,0,0-1.87-1.92,22.65,22.65,0,0,1-1.87-1.8,13,13,0,0,1-1.47-1.86,3.49,3.49,0,0,1-.58-1.66,2.54,2.54,0,0,1,.54-1.6,3.92,3.92,0,0,1,1.6-1.12,12,12,0,0,1,2.27-.71A12.55,12.55,0,0,1,934,597.11Zm-16.45-.47a1.59,1.59,0,0,1,.5.08,1.09,1.09,0,0,1,.39.23c-.34,1.6-.63,2.93-.88,4a23,23,0,0,1-.64,2.34,6,6,0,0,1-1.42,2.35,2.68,2.68,0,0,1-1.92.79,6.58,6.58,0,0,1-1.66-.24,13.82,13.82,0,0,1-2-.7,26,26,0,0,1,1.59-3.52,17.62,17.62,0,0,1,1.89-2.79,9.16,9.16,0,0,1,2.05-1.86A4,4,0,0,1,917.57,596.64Zm-3.14,11.13a5.77,5.77,0,0,0,1.7-.26,5.53,5.53,0,0,0,1.39-.62,5,5,0,0,0,1-.85,4.5,4.5,0,0,0,.68-.9c.22-.38.44-.82.68-1.34s.43-1,.6-1.48L921,601c.13-.42.3-.94.5-1.57s.42-1.36.65-2.19.47-1.61.69-2.32.44-1.34.62-1.92a4.64,4.64,0,0,0-1.06-.66,3,3,0,0,0-1.14-.22,1.62,1.62,0,0,0-1.07.35,2.83,2.83,0,0,0-.78,1.14,14,14,0,0,0-.65,2.16h-.42a2.51,2.51,0,0,0-.67-1.23,1.49,1.49,0,0,0-1-.33,7.68,7.68,0,0,0-4.35,1.44A17.45,17.45,0,0,0,908,600a21.44,21.44,0,0,0-3.1,6,20.94,20.94,0,0,0-1,6.59,11.16,11.16,0,0,0,.85,4.53,6.55,6.55,0,0,0,2.49,2.94,7.52,7.52,0,0,0,4,1.05,6.64,6.64,0,0,0,2.82-.66,7.43,7.43,0,0,0,2.19-1.65,7.69,7.69,0,0,0,1.46-2.19,18.32,18.32,0,0,0,.8-2c.25-.72.48-1.5.72-2.36l-.52-.26a13.83,13.83,0,0,1-1.54,2.81,11.91,11.91,0,0,1-2.12,2.31,10.47,10.47,0,0,1-2.23,1.48,4.44,4.44,0,0,1-2,.5,2.1,2.1,0,0,1-2-1.21,7.67,7.67,0,0,1-.66-3.59,22.82,22.82,0,0,1,.32-3.85,23.89,23.89,0,0,1,1-3.89,23.4,23.4,0,0,0,2.74.9A9,9,0,0,0,914.43,607.77Zm-14.57-8.1a26.37,26.37,0,0,0-1.41,6.74,1.38,1.38,0,0,0,.67,1.24,3.65,3.65,0,0,0,2,.43q.39-1.29.87-2.7c.31-.93.65-1.9,1-2.89.79-2,1.36-3.61,1.73-4.7.21-.58.36-1.07.47-1.48a4.49,4.49,0,0,0,.15-1c0-.49-.31-.88-.94-1.14a8.82,8.82,0,0,0-2.87-.48,6.5,6.5,0,0,1-.56,1.06,11.16,11.16,0,0,1-.9,1.24c-.37.45-.85,1.07-1.45,1.87s-1.29,1.79-2.1,2.94-1.67,2.44-2.55,3.87-1.84,3-2.83,4.7l-.32-.11c.21-.83.43-1.66.66-2.51s.44-1.65.65-2.43l.57-2.11c.18-.64.32-1.16.42-1.57s.25-.83.36-1.22.19-.79.27-1.18.24-.92.32-1.26a7.83,7.83,0,0,0,.16-.83,5.06,5.06,0,0,0,0-.63c0-.49-.31-.88-.95-1.14a8.49,8.49,0,0,0-2.86-.48,7,7,0,0,1-.17,1.18c-.1.55-.28,1.25-.51,2.11l-.47,1.74-.79,2.91c-.31,1.18-.6,2.23-.85,3.17s-.48,1.77-.66,2.47-.39,1.47-.61,2.29-.46,1.68-.7,2.63c-.44,1.85-.78,3.36-1,4.55a15.25,15.25,0,0,0-.35,2.55,1.4,1.4,0,0,0,.28.9,1.71,1.71,0,0,0,.94.5,7.92,7.92,0,0,0,1.81.17,101,101,0,0,1,6-12.77,44.43,44.43,0,0,1,6.31-8.81Zm-28.94,18.7a5.21,5.21,0,0,1-3.45-1.25c.34-1,.72-2,1.14-3a29.91,29.91,0,0,1,1.37-2.78c.73-1.36,1.51-2.67,2.32-4s1.65-2.5,2.54-3.68q2.74-3.53,3.76-4.54c.34-.34.65-.63.93-.88s.51-.45.69-.64l.15.06a11.65,11.65,0,0,1-.14,1.33c-.1.63-.24,1.43-.42,2.36s-.42,2-.69,3.17-.58,2.42-.94,3.74a26.45,26.45,0,0,1-1.25,3.74,22.48,22.48,0,0,1-1.73,3.26,7.88,7.88,0,0,1-2.06,2.28A3.85,3.85,0,0,1,870.92,618.37Zm-3.29-21.16q-1.07,4-2.34,9.13t-2.78,11.51c-1,4.2-1.73,7.47-2.23,9.78a34.21,34.21,0,0,0-.75,4.11c0,1.26,1.2,1.88,3.61,1.88q3-12.61,3.91-15.35a7.89,7.89,0,0,0,6,2.82,5.39,5.39,0,0,0,2.54-.67,9,9,0,0,0,2.42-2,19.3,19.3,0,0,0,2.13-3.06,26.57,26.57,0,0,0,1.68-3.68c.65-1.8,1.22-3.62,1.69-5.44s.84-3.58,1.1-5.26a30.46,30.46,0,0,0,.4-4.6,1.91,1.91,0,0,0-.9-1.72,5.2,5.2,0,0,0-2.76-.58l-1.46,1.46c-.49.5-1.12,1.19-1.89,2.09s-1.66,2-2.7,3.34-2.11,2.74-3.18,4.24-2.18,3.08-3.3,4.75l-.21,0c.21-.71.45-1.53.74-2.47l.93-3.12c.37-1.18.68-2.22,1-3.11s.49-1.67.67-2.33.32-1.2.43-1.64a5.81,5.81,0,0,0,.14-1,1.74,1.74,0,0,0-1-1.61,7,7,0,0,0-3.06-.64,5.92,5.92,0,0,1-.19,1.33C868.05,595.8,867.86,596.46,867.63,597.21Zm-8.41-.1a3.49,3.49,0,0,1,.51,0,2.34,2.34,0,0,1,.32.07q-.19,1.06-.42,2.7c-.15,1.1-.31,2.4-.46,3.89l.67.31a28.45,28.45,0,0,1,1.14-2.68c.46-1,1-2,1.63-3.22s1.19-2.17,1.68-3,.91-1.45,1.25-1.92a3.22,3.22,0,0,0-.63-.51,5.1,5.1,0,0,0-.87-.45,2.85,2.85,0,0,0-.9-.19,1.87,1.87,0,0,0-1.46.75,6.53,6.53,0,0,0-1.1,2.28h-.47a2.12,2.12,0,0,0-.47-1.3,1.47,1.47,0,0,0-1.1-.32,7.33,7.33,0,0,0-3.07.7,13.1,13.1,0,0,0-3.15,2.12A9.82,9.82,0,0,0,850,599.3a7.16,7.16,0,0,0-.78,3.24,5.63,5.63,0,0,0,.52,2.21A12.56,12.56,0,0,0,851,607a21.24,21.24,0,0,0,1.67,2c.58.62,1.14,1.27,1.67,2a12.77,12.77,0,0,1,1.31,2,4.09,4.09,0,0,1-.09,4.15,4.48,4.48,0,0,1-1.57,1.55,4.18,4.18,0,0,1-2.11.58,4.67,4.67,0,0,1-2.22-.54,4.78,4.78,0,0,1-1.67-1.46,5.46,5.46,0,0,1-.91-2.18,2.72,2.72,0,0,0-1.37.37,2.65,2.65,0,0,0-.94.94,2.59,2.59,0,0,0,.4,3.12,4.89,4.89,0,0,0,2.07,1.14,11.3,11.3,0,0,0,3.13.39,11.76,11.76,0,0,0,3.94-.63,9.07,9.07,0,0,0,5.24-4.7,7.92,7.92,0,0,0,.69-3.29,5.25,5.25,0,0,0-.58-2.23,11.1,11.1,0,0,0-1.46-2.23,17,17,0,0,0-1.87-1.92,21.28,21.28,0,0,1-1.88-1.8,12.2,12.2,0,0,1-1.46-1.86,3.49,3.49,0,0,1-.58-1.66,2.54,2.54,0,0,1,.54-1.6,3.78,3.78,0,0,1,1.6-1.12,12.09,12.09,0,0,1,2.26-.71A12.74,12.74,0,0,1,859.22,597.11ZM848,583.06c-.26,0-.91,0-1.93.08s-2.43.15-4.24.28-3.41.23-4.83.28-2.66.09-3.73.09c-.58,0-1,0-1.34,0a1.64,1.64,0,0,1-.54-.07l-.16,1.26a2,2,0,0,0,.4,1.36,1.51,1.51,0,0,0,1.22.47,6.14,6.14,0,0,0,1-.09,9.79,9.79,0,0,0,1.21-.28l.11.31a7.89,7.89,0,0,0-.86.59,2.59,2.59,0,0,0-.5.46,4.82,4.82,0,0,0-.3.63,10.92,10.92,0,0,0-.38,1.2q-4,13.54-6,21t-2,8.71a1.6,1.6,0,0,0,.5,1.29,2.25,2.25,0,0,0,1.48.43c2.9,0,5.37,0,7.41,0s3.62-.06,4.77-.12c2-.05,3-.73,3-2a2.26,2.26,0,0,0-.2-.94,2.44,2.44,0,0,0-.63-.79,18.21,18.21,0,0,1-2.11.6c-.84.19-1.78.37-2.86.55s-2.14.27-3.19.35-2.11.12-3.13.12a16,16,0,0,1,.48-2.94c.32-1.41.8-3.25,1.46-5.52l2.35-8.36c1.8-.08,3.51-.14,5.14-.19s3.19-.07,4.68-.07l.16-.26a3.09,3.09,0,0,0,.28-.72,2.6,2.6,0,0,0,.13-.79.89.89,0,0,0-.38-.78,2,2,0,0,0-1.13-.27c-.63,0-1.63.06-3,.19s-3.13.31-5.25.54l2.2-7.73,1.62-5.59h3.34c1.52,0,2.77,0,3.76.15a8.27,8.27,0,0,1,2.2.43l.26-.32a3.4,3.4,0,0,0,.62-.94,2.83,2.83,0,0,0,.32-1.25,1.13,1.13,0,0,0-.35-.9A1.61,1.61,0,0,0,848,583.06Z" transform="translate(-582.48 -576.65)"/><path class="cls-1" d="M1116.86,593.19a8,8,0,0,0-3.5.7,13.63,13.63,0,0,0-3.44,2.17,21,21,0,0,0-3.11,3.31,25.73,25.73,0,0,0-2.52,4.1,22.5,22.5,0,0,0-1.64,4.5,17.39,17.39,0,0,0-.53,4.6,12.36,12.36,0,0,0,.75,4.46,6.67,6.67,0,0,0,2.15,3,5.65,5.65,0,0,0,3.42,1.08,7.6,7.6,0,0,0,3-.67,11.41,11.41,0,0,0,3-2,16.77,16.77,0,0,0,2.76-3.09,22.42,22.42,0,0,0,2.15-3.91,22.12,22.12,0,0,0,1.41-4.38,21.3,21.3,0,0,0,.48-4.5c0-.46,0-.88,0-1.24a9.21,9.21,0,0,0-.12-1.07,10.81,10.81,0,0,0-.27-1.14,2.63,2.63,0,0,0-2.72-2,7.76,7.76,0,0,0-1.42.12,4.38,4.38,0,0,0-1.14.4l.26.73a10.15,10.15,0,0,1,.39,1.37c.12.56.23,1.21.32,1.91a19.88,19.88,0,0,1,.13,2.21,17.09,17.09,0,0,1-.35,3.44,24.84,24.84,0,0,1-1,3.61,26,26,0,0,1-1.45,3.33,17.19,17.19,0,0,1-1.74,2.68,8.52,8.52,0,0,1-1.8,1.71,2.92,2.92,0,0,1-1.64.58q-2.2,0-2.2-4.85a24.06,24.06,0,0,1,.36-4.12,27.32,27.32,0,0,1,1.1-4.24,21.2,21.2,0,0,1,4.29-7.32,10.14,10.14,0,0,1,2.85-2.28,6.66,6.66,0,0,1,3-.75l.21-1.35a.92.92,0,0,0-.36-.78,1.84,1.84,0,0,0-1.1-.27m-20.53,4.18q-1,2.55-1.83,5.38c-.57,1.89-1.07,3.89-1.52,6s-.77,4-1,5.56a30,30,0,0,0-.32,4,3.07,3.07,0,0,0,.69,2,2.37,2.37,0,0,0,1.76.78,2.73,2.73,0,0,0,1.38-.48,6.68,6.68,0,0,0,1.37-1.22,10.49,10.49,0,0,0,1.17-1.59c.23-.42.48-.86.73-1.34s.5-1,.73-1.54c.32-.74.58-1.32.75-1.75s.29-.78.37-1l.19-.58-.52-.26-.68,1.31c-.24.44-.5.91-.8,1.42s-.64,1.06-1,1.66-.72,1.08-1,1.52a11.44,11.44,0,0,1-.94,1.09,27.89,27.89,0,0,1,.51-4.86c.33-1.88.83-4,1.48-6.42s1.36-4.57,2-6.47a51.76,51.76,0,0,1,2-5,4,4,0,0,0-1.21-1.41,2.73,2.73,0,0,0-1.56-.47c-1.38,0-3.3,1.35-5.74,4a95.85,95.85,0,0,0-8.88,12.16l-.16,0,.8-2.62c.27-.88.52-1.73.78-2.56s.47-1.57.66-2.24.36-1.24.48-1.67l.38-1.3c.13-.42.24-.82.35-1.21s.28-1,.37-1.32a7.62,7.62,0,0,0,.19-.84,2.58,2.58,0,0,0,.07-.56c0-.49-.32-.88-.94-1.14a8.39,8.39,0,0,0-2.83-.48,19.7,19.7,0,0,1-.78,3.29q-3,9.91-4.51,15.36a42.55,42.55,0,0,0-1.5,6.43,1.37,1.37,0,0,0,.24.87,1.55,1.55,0,0,0,.94.52,9.17,9.17,0,0,0,2,.17,99.06,99.06,0,0,1,7.34-13.93,43.47,43.47,0,0,1,7.81-9.31Zm-28.53-1.1a6,6,0,0,1,1.21.13,3.13,3.13,0,0,1,1,.45l.56.3a3.08,3.08,0,0,1,.41.3,3.56,3.56,0,0,1,.49.44l.42.37a82,82,0,0,1-6.1,10.26,64.48,64.48,0,0,1-7,8.39l-.16,0,.37-2.15q.21-1.4.63-3.24c.27-1.21.6-2.5,1-3.87s.78-2.72,1.22-4.07a27.35,27.35,0,0,1,1.19-2.83,14.38,14.38,0,0,1,1.44-2.3,6.51,6.51,0,0,1,1.6-1.56A3.18,3.18,0,0,1,1067.8,596.27Zm5.91-1.72c-.21.44-.41.87-.59,1.28s-.38.78-.56,1.12a10.34,10.34,0,0,0-2.87-2.42,6.4,6.4,0,0,0-3.14-.82,5.38,5.38,0,0,0-2.81.8,9,9,0,0,0-2.62,2.39,22.52,22.52,0,0,0-2.19,3.45,26.25,26.25,0,0,0-1.68,4.07c-.47,1.44-.89,2.85-1.25,4.23s-.68,2.72-.94,4-.42,2.47-.54,3.49a21.5,21.5,0,0,0-.19,2.67,2.75,2.75,0,0,0,.52,1.52,1.77,1.77,0,0,0,1.12.63,8,8,0,0,0,1.7.1q1.36-1.38,2.87-3.18c1-1.2,2.07-2.54,3.19-4s2.06-2.77,2.83-3.84,1.35-1.93,1.77-2.59l1.13-1.79c.33-.53.62-1,.85-1.39l.16.05c-.45,1.25-.85,2.52-1.21,3.8s-.67,2.6-.93,3.93-.46,2.5-.59,3.49a20.25,20.25,0,0,0-.2,2.52,3.94,3.94,0,0,0,.56,2.3,1.93,1.93,0,0,0,1.69.78,2.93,2.93,0,0,0,1.55-.52,7.54,7.54,0,0,0,1.5-1.31,11.38,11.38,0,0,0,1.23-1.67,16.06,16.06,0,0,0,.83-1.42c.27-.5.53-1,.79-1.61q.51-1.14.78-1.8c.19-.45.32-.8.41-1s.16-.47.22-.65l-.52-.26a53,53,0,0,1-2.56,4.68,14,14,0,0,1-2.25,2.89,41.13,41.13,0,0,1,1.46-7.93q1.44-5.85,4.34-15.52a3.72,3.72,0,0,0-2.66-1.26,1.27,1.27,0,0,0-.72.2A1.48,1.48,0,0,0,1073.71,594.55Zm-20.79-11.75c-.06.35-.14.84-.27,1.45s-.27,1.3-.47,2-.41,1.52-.67,2.29a3,3,0,0,0,.63.41,1.71,1.71,0,0,0,.57.12,2.09,2.09,0,0,0,1.21-.51,8.52,8.52,0,0,0,1.45-1.48,10,10,0,0,0,1.18-1.76,3.05,3.05,0,0,0,.39-1.32,1.43,1.43,0,0,0-.47-1.07,3.06,3.06,0,0,0-1.11-.62,6.81,6.81,0,0,0-1.31-.28A9.61,9.61,0,0,0,1053,582Zm-5.44,35.57a36.22,36.22,0,0,1,.86-5.18c.49-2.19,1.18-4.88,2.07-8s1.59-5.59,2-7.28a25.44,25.44,0,0,0,.67-2.8c0-.49-.31-.88-.94-1.14a8.27,8.27,0,0,0-2.82-.48,19.7,19.7,0,0,1-.78,3.29c0,.19-.15.5-.28.94s-.32,1-.56,1.73-.39,1.33-.55,1.88-.31,1-.44,1.41-.28.86-.43,1.41-.35,1.17-.56,1.88-.39,1.36-.56,2-.3,1.13-.43,1.6c-.2.77-.39,1.54-.57,2.34s-.34,1.56-.49,2.31-.25,1.42-.33,2a12.28,12.28,0,0,0-.13,1.51,3.89,3.89,0,0,0,.7,2.52,2.57,2.57,0,0,0,2.07.83,2.53,2.53,0,0,0,1.42-.53,6.89,6.89,0,0,0,1.36-1.3,13.31,13.31,0,0,0,1.14-1.67c.26-.45.52-.92.77-1.42s.51-1,.74-1.61c.34-.76.6-1.36.79-1.81s.3-.79.38-1,.15-.47.19-.65l-.52-.26a53,53,0,0,1-2.56,4.68A14,14,0,0,1,1047.48,618.37Zm-10.18-.16a1,1,0,0,1-.31-.51,2.87,2.87,0,0,1-.11-.9,18.7,18.7,0,0,1,.28-2.89q.28-1.74.87-4,.83-3.18,1.69-6.42c.58-2.15,1.18-4.32,1.81-6.49s1.17-4.11,1.64-5.75.87-3,1.18-4.07.59-2,.75-2.59a6.77,6.77,0,0,0,.24-1.22,2.14,2.14,0,0,0-.4-1.37,2.34,2.34,0,0,0-1.34-.78,9.35,9.35,0,0,0-2.49-.25,10.48,10.48,0,0,1-.27,1.32c-.15.63-.36,1.42-.62,2.38q-3.87,14.11-5.83,22.34t-2,10.57a3.78,3.78,0,0,0,.83,2.66,3.14,3.14,0,0,0,2.46.9,2.9,2.9,0,0,0,1.45-.48,7.51,7.51,0,0,0,1.41-1.22,10.77,10.77,0,0,0,1.21-1.59,14.7,14.7,0,0,0,.83-1.35c.27-.46.53-1,.79-1.53s.6-1.27.79-1.7.31-.76.4-1,.16-.43.22-.58l-.52-.26-.78,1.36c-.26.44-.57.91-.91,1.42s-.71,1-1.13,1.61-.81,1.07-1.17,1.48A6.81,6.81,0,0,1,1037.3,618.21Z" transform="translate(-582.48 -576.65)"/></svg>