<svg id="Layer_1" data-name="Layer 1" xmlns="http://www.w3.org/2000/svg" viewBox="0 0 195.87 183.13"><defs><style>.cls-1{fill:#fff;}</style></defs><path class="cls-1" d="M1099.68,788l-9.89,22.33h-2.33L1077.57,788h2.55l8.55,19.4,8.62-19.4Z" transform="translate(-1077.57 -659.41)"/><path class="cls-1" d="M1109.29,788h2.36v22.33h-2.36Z" transform="translate(-1077.57 -659.41)"/><path class="cls-1" d="M1144,788v22.33H1142l-14.36-18.12v18.12h-2.37V788h2l14.39,18.12V788Z" transform="translate(-1077.57 -659.41)"/><path class="cls-1" d="M1171.64,804.38h-12.45l-2.68,6h-2.45L1164.27,788h2.33l10.21,22.33h-2.49Zm-.86-1.92-5.36-12-5.37,12Z" transform="translate(-1077.57 -659.41)"/><path class="cls-1" d="M1202.15,810.34l-5.11-7.18a14.75,14.75,0,0,1-1.79.1h-6v7.08h-2.36V788h8.36a10.08,10.08,0,0,1,6.7,2,6.94,6.94,0,0,1,2.43,5.62,7.24,7.24,0,0,1-1.33,4.42,7.37,7.37,0,0,1-3.78,2.6l5.46,7.65Zm-1.89-10.56a5.75,5.75,0,0,0,0-8.28,7.76,7.76,0,0,0-5.07-1.45h-5.94v11.2h5.94A7.7,7.7,0,0,0,1200.26,799.78Z" transform="translate(-1077.57 -659.41)"/><path class="cls-1" d="M1216.35,788h2.36v22.33h-2.36Z" transform="translate(-1077.57 -659.41)"/><path class="cls-1" d="M1231.22,809.71a6.93,6.93,0,0,1-2.65-2.36l1.4-1.6a5.6,5.6,0,0,0,4.82,2.74c2.77,0,4.15-1.63,4.15-4.91V790.05h-8.17v-2h10.5v15.47a7.54,7.54,0,0,1-1.65,5.29,6.3,6.3,0,0,1-4.86,1.77A7.69,7.69,0,0,1,1231.22,809.71Z" transform="translate(-1077.57 -659.41)"/><path class="cls-1" d="M1268.27,804.38h-12.45l-2.68,6h-2.46L1260.89,788h2.33l10.21,22.33H1271Zm-.87-1.92-5.36-12-5.36,12Z" transform="translate(-1077.57 -659.41)"/><path class="cls-1" d="M1095.08,822.05a7.69,7.69,0,0,1,0,11.22,10.13,10.13,0,0,1-6.7,2h-6v7.05H1080V820h8.36A10.08,10.08,0,0,1,1095.08,822.05Zm-1.69,9.72a5,5,0,0,0,1.76-4.1,5.11,5.11,0,0,0-1.76-4.17,7.76,7.76,0,0,0-5.07-1.45h-5.94v11.17h5.94A7.81,7.81,0,0,0,1093.39,831.77Z" transform="translate(-1077.57 -659.41)"/><path class="cls-1" d="M1109,820h2.36V840.3h12.51v2H1109Z" transform="translate(-1077.57 -659.41)"/><path class="cls-1" d="M1149.78,836.38h-12.45l-2.68,6h-2.45L1142.41,820h2.33L1155,842.34h-2.49Zm-.86-1.92-5.36-12-5.36,12Z" transform="translate(-1077.57 -659.41)"/><path class="cls-1" d="M1180.83,820l-9.89,22.33h-2.33L1158.72,820h2.55l8.55,19.4,8.62-19.4Z" transform="translate(-1077.57 -659.41)"/><path class="cls-1" d="M1190.91,820h2.37v22.33h-2.37Z" transform="translate(-1077.57 -659.41)"/><path class="cls-1" d="M1225.6,820v22.33h-1.95l-14.36-18.12v18.12h-2.36V820h2l14.39,18.12V820Z" transform="translate(-1077.57 -659.41)"/><path class="cls-1" d="M1243,841.07a10.76,10.76,0,0,1-4.18-4.07,11.92,11.92,0,0,1,0-11.65,10.79,10.79,0,0,1,4.19-4.07,13.1,13.1,0,0,1,10.6-.63,9.55,9.55,0,0,1,3.57,2.42l-1.5,1.5a8.88,8.88,0,0,0-6.6-2.65,9.77,9.77,0,0,0-4.82,1.21,8.89,8.89,0,0,0-3.4,3.32,9.69,9.69,0,0,0,0,9.45,8.89,8.89,0,0,0,3.4,3.32,9.67,9.67,0,0,0,4.82,1.21,8.75,8.75,0,0,0,6.6-2.68l1.5,1.5a9.63,9.63,0,0,1-3.59,2.44,12.39,12.39,0,0,1-4.61.85A12.15,12.15,0,0,1,1243,841.07Z" transform="translate(-1077.57 -659.41)"/><path class="cls-1" d="M1268.58,820H1271v22.33h-2.37Z" transform="translate(-1077.57 -659.41)"/><path class="cls-1" d="M1173.33,713.45l-1.69-.12a34,34,0,0,1-26-52.6l.88-1.32,2.64,1.75-.87,1.32A30.8,30.8,0,0,0,1170.17,710V660h3.16ZM1204.06,742c0,6.18-25.64,6.36-28.56,6.36s-28.56-.18-28.56-6.36c0-5.49,19-6.23,24.78-6.33l1.59,0,0,3.17-1.58,0c-12.57.21-19.63,2-21.38,3.13,2.12,1.3,11.16,3.22,25.1,3.22s23-1.92,25.1-3.22c-1.68-1.09-8.25-2.75-19.77-3.08V742h-3.16V660h27.17l.47.71a34,34,0,0,1-24.48,52.47v22.54C1187.88,735.94,1204.06,737,1204.06,742Zm-23.23-32a30.81,30.81,0,0,0,22.29-46.82h-22.29Z" transform="translate(-1077.57 -659.41)"/></svg>